<?xml version="1.0" standalone="no"?>
<!DOCTYPE svg PUBLIC "-//W3C//DTD SVG 20010904//EN"
 "http://www.w3.org/TR/2001/REC-SVG-20010904/DTD/svg10.dtd">
<svg version="1.0" xmlns="http://www.w3.org/2000/svg"
 width="225.000000pt" height="225.000000pt" viewBox="0 0 225.000000 225.000000"
 preserveAspectRatio="xMidYMid meet">

<g transform="translate(0.000000,225.000000) scale(0.100000,-0.100000)"
fill="#000000" stroke="none">
<path d="M1030 2244 c-208 -25 -383 -88 -544 -196 -79 -54 -231 -206 -286
-287 -86 -128 -151 -287 -181 -441 -16 -84 -16 -306 0 -390 30 -153 96 -315
183 -444 54 -79 206 -231 287 -286 128 -86 287 -151 441 -181 84 -16 306 -16
390 0 153 30 315 96 444 183 79 54 231 206 286 287 86 128 151 287 181 441 16
84 16 306 0 390 -30 153 -96 315 -183 444 -23 33 -82 102 -132 152 -161 162
-347 263 -570 308 -75 16 -256 27 -316 20z m295 -349 c377 -103 634 -478 587
-856 -48 -389 -355 -681 -743 -706 -379 -25 -730 236 -819 607 -11 47 -20 93
-20 103 0 16 35 17 590 17 l590 0 0 65 0 65 -590 0 c-555 0 -590 1 -590 18 0
9 9 55 20 102 71 297 315 532 619 596 83 17 273 11 356 -11z"/>
</g>
</svg>
