<?xml version="1.0" standalone="no"?>
<!DOCTYPE svg PUBLIC "-//W3C//DTD SVG 20010904//EN"
 "http://www.w3.org/TR/2001/REC-SVG-20010904/DTD/svg10.dtd">
<svg version="1.0" xmlns="http://www.w3.org/2000/svg"
 width="150.000000pt" height="150.000000pt" viewBox="0 0 150.000000 150.000000"
 preserveAspectRatio="xMidYMid meet">

<g transform="translate(0.000000,150.000000) scale(0.100000,-0.100000)"
fill="#000000" stroke="none">
<path d="M218 1143 l-3 -188 -58 -3 -58 -3 3 -47 3 -47 58 -3 58 -3 -3 -92 -3
-92 -55 -5 -55 -5 -3 -42 -3 -42 58 -3 58 -3 7 -50 c18 -134 51 -207 130 -281
70 -66 126 -91 263 -116 153 -28 314 -8 454 54 60 27 152 122 172 178 33 92
39 117 39 156 0 52 14 64 73 64 l48 0 -3 43 -3 42 -47 3 c-25 2 -51 9 -58 17
-6 8 -10 44 -8 92 l3 78 55 5 55 5 3 48 3 47 -48 0 c-27 0 -54 5 -61 12 -8 8
-12 65 -12 190 l0 178 -165 0 -165 0 0 -178 c0 -125 -4 -182 -12 -190 -17 -17
-359 -17 -376 0 -8 8 -12 65 -12 190 l0 178 -165 0 -165 0 -2 -187z m730 -368
c5 -124 21 -115 -197 -115 -163 0 -190 2 -195 16 -8 22 -8 159 1 168 4 3 93 5
197 4 l191 -3 3 -70z m-10 -229 c6 -27 -38 -105 -74 -132 -26 -20 -42 -24
-103 -24 -79 0 -111 12 -153 57 -27 28 -46 92 -33 113 4 7 64 10 183 8 163 -3
177 -4 180 -22z"/>
</g>
</svg>
