<svg width="254" height="58" viewBox="0 0 254 58" fill="none" xmlns="http://www.w3.org/2000/svg">
<g clip-path="url(#clip0_121_2)">
<path d="M10.208 49.413L16.5467 53.0989L24.995 48.1877V58L31.3437 54.3141V37.1602L10.208 49.413Z" fill="url(#paint0_linear_121_2)"/>
<path d="M35.203 27.5588V52.0745L41.5417 48.3986V38.5964L50 43.4975V36.1358L44.7211 33.0826L35.203 27.5588Z" fill="url(#paint1_linear_121_2)"/>
<path d="M50 14.5025L43.6613 10.8166L38.3723 13.8798L28.8642 19.4036L50 31.6564V24.3048L41.5417 19.4036L50 14.5025Z" fill="url(#paint2_linear_121_2)"/>
<path d="M39.792 8.57697L33.4533 4.90113L24.995 9.80225V0L18.6563 3.67584V20.8398L28.1744 15.3261L39.792 8.57697Z" fill="url(#paint3_linear_121_2)"/>
<path d="M14.797 30.4312V5.9155L8.44831 9.60139V19.4036L0 14.5025V21.8542L14.797 30.4312Z" fill="url(#paint4_linear_121_2)"/>
<path d="M21.1358 38.5964L0 26.3335V33.6952L8.44831 38.5964L0 43.4975L6.33873 47.1733L21.1358 38.5964Z" fill="url(#paint5_linear_121_2)"/>
<path fill-rule="evenodd" clip-rule="evenodd" d="M123.749 23.3714C123.772 23.3714 123.8 23.376 123.828 23.385C123.868 23.3985 123.907 23.422 123.924 23.4556C123.983 23.5398 123.983 23.652 123.924 23.7082L119.943 30.7516C118.567 33.1649 116.049 34.6521 113.297 34.6521H94.7061L97.5167 29.7414L97.6338 29.5169L100.034 25.3077L100.649 24.2413L101.147 23.3714H123.749ZM116.282 28.7019L116.94 27.5381H103.592L101.911 30.4854H113.297C114.484 30.4854 115.625 29.8499 116.279 28.7072L116.282 28.7019Z" fill="white"/>
<path fill-rule="evenodd" clip-rule="evenodd" d="M78.0718 33.7651L85.4226 20.8557L83.0531 15.0516H138.585V15.0236H165.629L165.599 15.0516H172.74L175.908 15.0466L175.87 15.0236H190.566L205.536 15L205.497 15.0236H205.561L210.486 19.06L218.761 15.0236H254L239.339 22.9284L239.337 22.9293L239.284 22.9582L239.283 22.9557L224.252 30.29L239.841 43H214.248L208.236 38.0878L198.112 43H179.426L162.998 42.9553L177.571 35.096L177.571 35.0942L194.47 26.8594L191.449 24.3928L190.744 23.9693L179.945 30.518L177.391 28.0696L177.275 27.9389C177.251 27.9112 177.225 27.8843 177.196 27.8583L169.086 35.2831H150.859L146.439 43H130.418L127.233 41.1164C124.67 42.3357 121.831 43 118.889 43H78.8206L68 36.6006L77.6833 33.9487C77.723 33.9318 77.7747 33.909 77.8371 33.8799C77.9041 33.8487 77.9828 33.8106 78.0718 33.7651ZM89.2899 19.2183L90.0804 21.1546L81.1803 36.7848C80.7256 37.0787 80.3168 37.3067 79.9799 37.4781C79.3842 37.7813 79.0138 37.9073 79.0138 37.9073L78.6039 38.0195L79.9799 38.8333H118.889C120.154 38.8333 121.398 38.6757 122.596 38.3738C125.063 37.7523 127.337 36.5193 129.218 34.7916C129.227 34.7832 129.237 34.7748 129.246 34.7663C129.259 34.7545 129.271 34.7427 129.284 34.7308C129.341 34.6776 129.398 34.624 129.455 34.5698C129.514 34.5128 129.573 34.4552 129.632 34.3971C129.952 34.081 130.259 33.7499 130.552 33.4044C131.144 32.7077 131.68 31.9527 132.151 31.1445L134.054 27.8332L137.772 21.0984C137.897 20.8897 137.955 20.6572 137.947 20.4262C137.94 20.2224 137.882 20.0198 137.772 19.8357C137.748 19.7885 137.72 19.7438 137.69 19.7016C137.468 19.3922 137.105 19.2183 136.718 19.2183H89.2899ZM141.707 21.1265L140.916 19.2183H142.79V19.1903H155.233L155.203 19.2183H172.74L190.57 19.1903L180.528 25.2796L180.44 25.1954C180.39 25.1388 180.339 25.0833 180.287 25.0291C179.356 24.0619 178.089 23.4823 176.716 23.3788C176.679 23.376 176.642 23.3735 176.605 23.3714H152.832L150.812 26.9352H159.536C161.821 26.9449 163.959 26.9479 165.798 26.9477C168.477 26.9474 170.522 26.9402 171.467 26.9369L171.469 26.9369C171.753 26.9359 171.937 26.9352 172.008 26.9352L167.441 31.1164H148.411L143.99 38.8333H131.577L130.201 38.0195L130.611 37.9073C130.611 37.9073 130.981 37.7813 131.577 37.4781C131.914 37.3067 132.323 37.0787 132.778 36.7848L141.707 21.1265ZM204.048 19.1903L209.903 23.9888L219.74 19.1903H237.482L216.549 29.4046L228.113 38.8333H215.758L208.82 33.1649L197.138 38.8333H179.426L202.174 27.749L193.889 20.9862L190.902 19.1903H204.048Z" fill="white"/>
</g>
<defs>
<linearGradient id="paint0_linear_121_2" x1="25" y1="0" x2="25" y2="58" gradientUnits="userSpaceOnUse">
<stop offset="0.145833" stop-color="#EB00FF"/>
<stop offset="0.541667" stop-color="#00FFE0"/>
<stop offset="1" stop-color="#00FF85"/>
</linearGradient>
<linearGradient id="paint1_linear_121_2" x1="25" y1="0" x2="25" y2="58" gradientUnits="userSpaceOnUse">
<stop offset="0.145833" stop-color="#EB00FF"/>
<stop offset="0.541667" stop-color="#00FFE0"/>
<stop offset="1" stop-color="#00FF85"/>
</linearGradient>
<linearGradient id="paint2_linear_121_2" x1="25" y1="0" x2="25" y2="58" gradientUnits="userSpaceOnUse">
<stop offset="0.145833" stop-color="#EB00FF"/>
<stop offset="0.541667" stop-color="#00FFE0"/>
<stop offset="1" stop-color="#00FF85"/>
</linearGradient>
<linearGradient id="paint3_linear_121_2" x1="25" y1="0" x2="25" y2="58" gradientUnits="userSpaceOnUse">
<stop offset="0.145833" stop-color="#EB00FF"/>
<stop offset="0.541667" stop-color="#00FFE0"/>
<stop offset="1" stop-color="#00FF85"/>
</linearGradient>
<linearGradient id="paint4_linear_121_2" x1="25" y1="0" x2="25" y2="58" gradientUnits="userSpaceOnUse">
<stop offset="0.145833" stop-color="#EB00FF"/>
<stop offset="0.541667" stop-color="#00FFE0"/>
<stop offset="1" stop-color="#00FF85"/>
</linearGradient>
<linearGradient id="paint5_linear_121_2" x1="25" y1="0" x2="25" y2="58" gradientUnits="userSpaceOnUse">
<stop offset="0.145833" stop-color="#EB00FF"/>
<stop offset="0.541667" stop-color="#00FFE0"/>
<stop offset="1" stop-color="#00FF85"/>
</linearGradient>
<clipPath id="clip0_121_2">
<rect width="254" height="58" fill="white"/>
</clipPath>
</defs>
</svg>
