<svg width="50" height="58" viewBox="0 0 50 58" fill="none" xmlns="http://www.w3.org/2000/svg">
<g clip-path="url(#clip0_216_3)">
<path d="M10.208 49.413L16.5467 53.0989L24.995 48.1877V58L31.3437 54.3141V37.1602L10.208 49.413Z" fill="url(#paint0_linear_216_3)"/>
<path d="M35.203 27.5588V52.0745L41.5417 48.3986V38.5964L50 43.4975V36.1358L44.7211 33.0826L35.203 27.5588Z" fill="url(#paint1_linear_216_3)"/>
<path d="M50 14.5025L43.6613 10.8166L38.3723 13.8798L28.8642 19.4036L50 31.6564V24.3048L41.5417 19.4036L50 14.5025Z" fill="url(#paint2_linear_216_3)"/>
<path d="M39.792 8.57697L33.4533 4.90113L24.995 9.80225V0L18.6563 3.67584V20.8398L28.1744 15.3261L39.792 8.57697Z" fill="url(#paint3_linear_216_3)"/>
<path d="M14.797 30.4312V5.9155L8.44831 9.60139V19.4036L0 14.5025V21.8542L14.797 30.4312Z" fill="url(#paint4_linear_216_3)"/>
<path d="M21.1358 38.5964L0 26.3335V33.6952L8.44831 38.5964L0 43.4975L6.33873 47.1733L21.1358 38.5964Z" fill="url(#paint5_linear_216_3)"/>
</g>
<defs>
<linearGradient id="paint0_linear_216_3" x1="25" y1="0" x2="25" y2="58" gradientUnits="userSpaceOnUse">
<stop offset="0.145833" stop-color="#EB00FF"/>
<stop offset="0.541667" stop-color="#00FFE0"/>
<stop offset="1" stop-color="#00FF85"/>
</linearGradient>
<linearGradient id="paint1_linear_216_3" x1="25" y1="0" x2="25" y2="58" gradientUnits="userSpaceOnUse">
<stop offset="0.145833" stop-color="#EB00FF"/>
<stop offset="0.541667" stop-color="#00FFE0"/>
<stop offset="1" stop-color="#00FF85"/>
</linearGradient>
<linearGradient id="paint2_linear_216_3" x1="25" y1="0" x2="25" y2="58" gradientUnits="userSpaceOnUse">
<stop offset="0.145833" stop-color="#EB00FF"/>
<stop offset="0.541667" stop-color="#00FFE0"/>
<stop offset="1" stop-color="#00FF85"/>
</linearGradient>
<linearGradient id="paint3_linear_216_3" x1="25" y1="0" x2="25" y2="58" gradientUnits="userSpaceOnUse">
<stop offset="0.145833" stop-color="#EB00FF"/>
<stop offset="0.541667" stop-color="#00FFE0"/>
<stop offset="1" stop-color="#00FF85"/>
</linearGradient>
<linearGradient id="paint4_linear_216_3" x1="25" y1="0" x2="25" y2="58" gradientUnits="userSpaceOnUse">
<stop offset="0.145833" stop-color="#EB00FF"/>
<stop offset="0.541667" stop-color="#00FFE0"/>
<stop offset="1" stop-color="#00FF85"/>
</linearGradient>
<linearGradient id="paint5_linear_216_3" x1="25" y1="0" x2="25" y2="58" gradientUnits="userSpaceOnUse">
<stop offset="0.145833" stop-color="#EB00FF"/>
<stop offset="0.541667" stop-color="#00FFE0"/>
<stop offset="1" stop-color="#00FF85"/>
</linearGradient>
<clipPath id="clip0_216_3">
<rect width="50" height="58" fill="white"/>
</clipPath>
</defs>
</svg>
