<svg width="263" height="49" viewBox="0 0 263 49" fill="none" xmlns="http://www.w3.org/2000/svg">
<mask id="path-1-outside-1_6_50" maskUnits="userSpaceOnUse" x="53.5195" y="14" width="209" height="24" fill="black">
<rect fill="white" x="53.5195" y="14" width="209" height="24"/>
<path d="M77.0859 27.3146H91.3317L94.7945 24.049C94.4219 24.049 90.3893 24.0709 85.458 24.049C84.0992 24.049 82.7404 24.049 81.2501 24.049C79.7378 24.049 79.431 24.049 78.8831 24.049L79.5186 22.8874L80.3953 21.2656H98.0163C99.1998 21.2656 100.339 21.7697 101.128 22.6902L101.172 22.7559L108.646 18H86.2909V18.0219C84.8882 18.0219 83.5294 18 82.2363 18H71.4972L72.0889 19.5342L68.3631 26.3941L65.4482 31.7417C64.5058 32.3773 63.8264 32.6184 63.8264 32.6184L63.5195 32.706L64.5496 33.3416H98.8491L102.29 30.076H75.5737L77.0859 27.3146ZM143.728 18H130.447L123.083 21.7477L118.7 18H108.859L111.094 19.4027L117.297 24.6846L100.268 33.3416H113.527L122.272 28.9145L127.466 33.3416H136.715L128.058 25.9776L143.728 18ZM172.503 18L170.728 21.2875L169.216 24.049L167.419 27.3146L166.257 29.4405L165.906 30.076H148.724L153.545 21.2875L155.343 18H144.625L145.217 19.5342L141.908 25.6489L140.987 27.3146L138.445 31.9828L139.563 33.3416H168.471C171.473 33.3416 174.257 31.6979 175.703 29.0679L181.752 18H172.503ZM208.67 18.0219L196.966 25.2106L193.745 18.0219H183.049L183.663 19.5561L177 31.7417L176.978 31.7636C176.474 32.1143 175.926 32.3992 175.378 32.6184L175.072 32.706L176.102 33.3416H185.35L189.865 25.101L193.219 32.0047H195.914L207.355 24.4873L202.511 33.3416H211.738L220.154 18H208.67V18.0219ZM257.869 18.5041C257.715 18.1972 257.409 18 257.08 18H221.575L222.167 19.5342L215.504 31.7417C214.562 32.3773 213.882 32.6184 213.882 32.6184L213.575 32.706L214.606 33.3416H223.854L227.142 27.3365H244.346L242.812 30.1418L241.957 31.7198C240.993 32.3773 240.292 32.6184 240.292 32.6184L240.007 32.706L241.059 33.3416H250.286L251.951 30.2952L252.806 28.761L256.028 22.8874L257.869 19.4903C258.044 19.1835 258.044 18.8109 257.869 18.5041ZM247.502 21.5724L246.144 24.049L228.939 24.0271L230.429 21.3094H247.349C247.415 21.3094 247.459 21.3532 247.502 21.3971C247.524 21.4628 247.524 21.5286 247.502 21.5724Z"/>
</mask>
<path d="M77.0859 27.3146H91.3317L94.7945 24.049C94.4219 24.049 90.3893 24.0709 85.458 24.049C84.0992 24.049 82.7404 24.049 81.2501 24.049C79.7378 24.049 79.431 24.049 78.8831 24.049L79.5186 22.8874L80.3953 21.2656H98.0163C99.1998 21.2656 100.339 21.7697 101.128 22.6902L101.172 22.7559L108.646 18H86.2909V18.0219C84.8882 18.0219 83.5294 18 82.2363 18H71.4972L72.0889 19.5342L68.3631 26.3941L65.4482 31.7417C64.5058 32.3773 63.8264 32.6184 63.8264 32.6184L63.5195 32.706L64.5496 33.3416H98.8491L102.29 30.076H75.5737L77.0859 27.3146ZM143.728 18H130.447L123.083 21.7477L118.7 18H108.859L111.094 19.4027L117.297 24.6846L100.268 33.3416H113.527L122.272 28.9145L127.466 33.3416H136.715L128.058 25.9776L143.728 18ZM172.503 18L170.728 21.2875L169.216 24.049L167.419 27.3146L166.257 29.4405L165.906 30.076H148.724L153.545 21.2875L155.343 18H144.625L145.217 19.5342L141.908 25.6489L140.987 27.3146L138.445 31.9828L139.563 33.3416H168.471C171.473 33.3416 174.257 31.6979 175.703 29.0679L181.752 18H172.503ZM208.67 18.0219L196.966 25.2106L193.745 18.0219H183.049L183.663 19.5561L177 31.7417L176.978 31.7636C176.474 32.1143 175.926 32.3992 175.378 32.6184L175.072 32.706L176.102 33.3416H185.35L189.865 25.101L193.219 32.0047H195.914L207.355 24.4873L202.511 33.3416H211.738L220.154 18H208.67V18.0219ZM257.869 18.5041C257.715 18.1972 257.409 18 257.08 18H221.575L222.167 19.5342L215.504 31.7417C214.562 32.3773 213.882 32.6184 213.882 32.6184L213.575 32.706L214.606 33.3416H223.854L227.142 27.3365H244.346L242.812 30.1418L241.957 31.7198C240.993 32.3773 240.292 32.6184 240.292 32.6184L240.007 32.706L241.059 33.3416H250.286L251.951 30.2952L252.806 28.761L256.028 22.8874L257.869 19.4903C258.044 19.1835 258.044 18.8109 257.869 18.5041ZM247.502 21.5724L246.144 24.049L228.939 24.0271L230.429 21.3094H247.349C247.415 21.3094 247.459 21.3532 247.502 21.3971C247.524 21.4628 247.524 21.5286 247.502 21.5724Z" stroke="#D6D6D6" stroke-width="8" mask="url(#path-1-outside-1_6_50)"/>
<path d="M8.57469 41.7455L13.8992 44.8594L20.9958 40.7103V49L26.3287 45.8861V31.3939L8.57469 41.7455Z" fill="url(#paint0_linear_6_50)"/>
<path d="M29.5705 23.2824V43.9939L34.895 40.8885V32.6073L42 36.7479V30.5285L37.5657 27.9491L29.5705 23.2824Z" fill="url(#paint1_linear_6_50)"/>
<path d="M42 12.2521L36.6755 9.13818L32.2328 11.7261L24.246 16.3927L42 26.7442V20.5333L34.895 16.3927L42 12.2521Z" fill="url(#paint2_linear_6_50)"/>
<path d="M33.4253 7.24606L28.1008 4.14061L20.9958 8.28121V0L15.6713 3.10545V17.6061L23.6665 12.9479L33.4253 7.24606Z" fill="url(#paint3_linear_6_50)"/>
<path d="M12.4295 25.7091V4.99758L7.09658 8.11152V16.3927L0 12.2521V18.463L12.4295 25.7091Z" fill="url(#paint4_linear_6_50)"/>
<path d="M17.754 32.6073L0 22.2473V28.4667L7.09658 32.6073L0 36.7479L5.32454 39.8533L17.754 32.6073Z" fill="url(#paint5_linear_6_50)"/>
<defs>
<linearGradient id="paint0_linear_6_50" x1="21" y1="0" x2="21" y2="49" gradientUnits="userSpaceOnUse">
<stop offset="0.145833" stop-color="#EB00FF"/>
<stop offset="0.541667" stop-color="#00FFE0"/>
<stop offset="1" stop-color="#00FF85"/>
</linearGradient>
<linearGradient id="paint1_linear_6_50" x1="21" y1="0" x2="21" y2="49" gradientUnits="userSpaceOnUse">
<stop offset="0.145833" stop-color="#EB00FF"/>
<stop offset="0.541667" stop-color="#00FFE0"/>
<stop offset="1" stop-color="#00FF85"/>
</linearGradient>
<linearGradient id="paint2_linear_6_50" x1="21" y1="0" x2="21" y2="49" gradientUnits="userSpaceOnUse">
<stop offset="0.145833" stop-color="#EB00FF"/>
<stop offset="0.541667" stop-color="#00FFE0"/>
<stop offset="1" stop-color="#00FF85"/>
</linearGradient>
<linearGradient id="paint3_linear_6_50" x1="21" y1="0" x2="21" y2="49" gradientUnits="userSpaceOnUse">
<stop offset="0.145833" stop-color="#EB00FF"/>
<stop offset="0.541667" stop-color="#00FFE0"/>
<stop offset="1" stop-color="#00FF85"/>
</linearGradient>
<linearGradient id="paint4_linear_6_50" x1="21" y1="0" x2="21" y2="49" gradientUnits="userSpaceOnUse">
<stop offset="0.145833" stop-color="#EB00FF"/>
<stop offset="0.541667" stop-color="#00FFE0"/>
<stop offset="1" stop-color="#00FF85"/>
</linearGradient>
<linearGradient id="paint5_linear_6_50" x1="21" y1="0" x2="21" y2="49" gradientUnits="userSpaceOnUse">
<stop offset="0.145833" stop-color="#EB00FF"/>
<stop offset="0.541667" stop-color="#00FFE0"/>
<stop offset="1" stop-color="#00FF85"/>
</linearGradient>
</defs>
</svg>
